<?xml version="1.0" encoding="UTF-8"?>
<svg width="414px" height="135px" viewBox="0 0 414 135" version="1.1" xmlns="http://www.w3.org/2000/svg" xmlns:xlink="http://www.w3.org/1999/xlink">
    <!-- Generator: Sketch 60.1 (88133) - https://sketch.com -->
    <title>UXSG-logo-hor</title>
    <desc>Created with Sketch.</desc>
    <defs>
        <polygon id="path-1" points="114 0 120 6 120 119 5 119 0 114 1 96 1 1 96 1"></polygon>
        <polygon id="path-3" points="114 0 120 6 120 120 6 120 0 114 1 96 1 1 96 1"></polygon>
        <polygon id="path-5" points="114 0 120 6 120 120 6 120 0 114 1 96 1 1 96 1"></polygon>
        <path d="M114,0 L114,76.122 C114,81.454 111.819,86.554 107.963,90.237 L88.745,108.595 C85.114,112.064 80.284,114 75.262,114 L0,114 L0,0 L114,0 Z" id="path-7"></path>
        <path d="M114,0 L114,76.311 C114,80.797 110.327,84.413 105.842,84.343 L84,84 L83.324,106.212 C83.192,110.551 79.636,114 75.295,114 L0,114 L0,0 L114,0 Z" id="path-9"></path>
        <path d="M10.379,0 L10.379,20.523 C10.379,25.851 13.065,28.383 17.175,28.383 C21.284,28.383 23.972,25.957 23.972,20.786 L23.972,20.786 L23.972,0 L34.351,0 L34.351,20.47 C34.351,23.536 33.894,26.152 33.049,28.357 L33.049,28.357 L39.401,38.464 L45.988,28.071 L57.473,28.071 L45.356,46.114 L58,65 L46.251,65 L39.191,53.869 L32.078,65 L20.593,65 L33.237,46.22 L26.263,35.773 C23.689,37.01 20.595,37.616 17.07,37.616 C6.586,37.616 0,32.287 0,20.733 L0,20.733 L0,0 L10.379,0 Z" id="path-11"></path>
    </defs>
    <g id="UXSG-logo-hor" stroke="none" stroke-width="1" fill="none" fill-rule="evenodd">
        <g id="Group-3" transform="translate(15.000000, 16.000000)">
            <mask id="mask-2" fill="white">
                <use xlink:href="#path-1"></use>
            </mask>
            <g id="Clip-2"></g>
            <polygon id="Fill-1" fill="#61C4D8" mask="url(#mask-2)" points="0 119 120 119 120 -0.04 0 -0.04"></polygon>
        </g>
        <g id="Group-6" transform="translate(9.000000, 10.000000)">
            <mask id="mask-4" fill="white">
                <use xlink:href="#path-3"></use>
            </mask>
            <g id="Clip-5"></g>
            <polygon id="Fill-4" fill="#A291B9" mask="url(#mask-4)" points="0 120.08 120 120.08 120 -0.04 0 -0.04"></polygon>
        </g>
        <g id="Group-9" transform="translate(3.000000, 4.000000)">
            <mask id="mask-6" fill="white">
                <use xlink:href="#path-5"></use>
            </mask>
            <g id="Clip-8"></g>
            <polygon id="Fill-7" fill="#FCDD2A" mask="url(#mask-6)" points="0 120.08 120 120.08 120 -0.04 0 -0.04"></polygon>
        </g>
        <g id="Group-12" transform="translate(3.000000, 4.000000)">
            <mask id="mask-8" fill="white">
                <use xlink:href="#path-7"></use>
            </mask>
            <g id="Clip-11"></g>
            <polygon id="Fill-10" fill="#F5E73C" mask="url(#mask-8)" points="0 114.08 114 114.08 114 -0.04 0 -0.04"></polygon>
        </g>
        <g id="Group-15" transform="translate(3.000000, 4.000000)">
            <mask id="mask-10" fill="white">
                <use xlink:href="#path-9"></use>
            </mask>
            <g id="Clip-14"></g>
            <polygon id="Fill-13" fill="#FCDD2A" mask="url(#mask-10)" points="0 114.08 114 114.08 114 -0.04 0 -0.04"></polygon>
        </g>
        <g id="Group-18" transform="translate(16.000000, 17.000000)">
            <mask id="mask-12" fill="white">
                <use xlink:href="#path-11"></use>
            </mask>
            <g id="Clip-17"></g>
            <polygon id="Fill-16" fill="#090907" mask="url(#mask-12)" points="-0.04 65.08 58.04 65.08 58.04 -0.08 -0.04 -0.08"></polygon>
        </g>
        <path d="M168.32,54.4 C174.36,54.4 178.6,51.28 178.6,45.72 L178.6,45.64 C178.6,40.76 175.4,38.72 169.72,37.24 C164.88,36 163.68,35.4 163.68,33.56 L163.68,33.48 C163.68,32.12 164.92,31.04 167.28,31.04 C169.64,31.04 172.08,32.08 174.56,33.8 L177.76,29.16 C174.92,26.88 171.44,25.6 167.36,25.6 C161.64,25.6 157.56,28.96 157.56,34.04 L157.56,34.12 C157.56,39.68 161.2,41.24 166.84,42.68 C171.52,43.88 172.48,44.68 172.48,46.24 L172.48,46.32 C172.48,47.96 170.96,48.96 168.44,48.96 C165.24,48.96 162.6,47.64 160.08,45.56 L156.44,49.92 C159.8,52.92 164.08,54.4 168.32,54.4 Z M194.64,54.44 C202.16,54.44 206.92,50.28 206.92,41.8 L206.92,26 L200.76,26 L200.76,42.04 C200.76,46.48 198.48,48.76 194.72,48.76 C190.96,48.76 188.68,46.4 188.68,41.84 L188.68,26 L182.52,26 L182.52,42 C182.52,50.24 187.12,54.44 194.64,54.44 Z M218.36,54 L218.36,45.6 L223.04,45.6 C229.32,45.6 234.36,42.24 234.36,35.76 L234.36,35.68 C234.36,29.96 230.32,26 223.64,26 L212.2,26 L212.2,54 L218.36,54 Z M223.24,40.12 L218.36,40.12 L218.36,31.56 L223.12,31.56 C226.2,31.56 228.12,33.04 228.12,35.8 L228.12,35.88 C228.12,38.28 226.32,40.12 223.24,40.12 Z M244.08,54 L244.08,45.6 L248.76,45.6 C255.04,45.6 260.08,42.24 260.08,35.76 L260.08,35.68 C260.08,29.96 256.04,26 249.36,26 L237.92,26 L237.92,54 L244.08,54 Z M248.96,40.12 L244.08,40.12 L244.08,31.56 L248.84,31.56 C251.92,31.56 253.84,33.04 253.84,35.8 L253.84,35.88 C253.84,38.28 252.04,40.12 248.96,40.12 Z M277.24,54.48 C285.88,54.48 292.16,47.96 292.16,40 L292.16,39.92 C292.16,31.96 285.96,25.52 277.32,25.52 C268.68,25.52 262.4,32.04 262.4,40 L262.4,40.08 C262.4,48.04 268.6,54.48 277.24,54.48 Z M277.32,48.8 C272.36,48.8 268.84,44.8 268.84,40 L268.84,39.92 C268.84,35.12 272.28,31.2 277.24,31.2 C282.2,31.2 285.72,35.2 285.72,40 L285.72,40.08 C285.72,44.88 282.28,48.8 277.32,48.8 Z M302.8,54 L302.8,45.04 L307.64,45.04 L313.64,54 L320.84,54 L314,44 C317.56,42.68 320,39.84 320,35.32 L320,35.24 C320,32.6 319.16,30.4 317.6,28.84 C315.76,27 313,26 309.44,26 L296.64,26 L296.64,54 L302.8,54 Z M309.04,39.6 L302.8,39.6 L302.8,31.56 L308.92,31.56 C311.92,31.56 313.76,32.92 313.76,35.56 L313.76,35.64 C313.76,38 312.04,39.6 309.04,39.6 Z M337.24,54 L337.24,31.68 L345.76,31.68 L345.76,26 L322.56,26 L322.56,31.68 L331.08,31.68 L331.08,54 L337.24,54 Z M171.84,100.48 C176.96,100.48 180.92,98.48 183.8,96.04 L183.8,83.88 L171.64,83.88 L171.64,89.2 L177.84,89.2 L177.84,93.2 C176.28,94.32 174.28,94.88 172.04,94.88 C167.08,94.88 163.56,91.12 163.56,86 L163.56,85.92 C163.56,81.16 167.12,77.2 171.6,77.2 C174.84,77.2 176.76,78.24 178.92,80.04 L182.8,75.36 C179.88,72.88 176.84,71.52 171.8,71.52 C163.32,71.52 157.12,78.04 157.12,86 L157.12,86.08 C157.12,94.36 163.12,100.48 171.84,100.48 Z M194.88,100 L194.88,91.04 L199.72,91.04 L205.72,100 L212.92,100 L206.08,90 C209.64,88.68 212.08,85.84 212.08,81.32 L212.08,81.24 C212.08,78.6 211.24,76.4 209.68,74.84 C207.84,73 205.08,72 201.52,72 L188.72,72 L188.72,100 L194.88,100 Z M201.12,85.6 L194.88,85.6 L194.88,77.56 L201,77.56 C204,77.56 205.84,78.92 205.84,81.56 L205.84,81.64 C205.84,84 204.12,85.6 201.12,85.6 Z M230.24,100.48 C238.88,100.48 245.16,93.96 245.16,86 L245.16,85.92 C245.16,77.96 238.96,71.52 230.32,71.52 C221.68,71.52 215.4,78.04 215.4,86 L215.4,86.08 C215.4,94.04 221.6,100.48 230.24,100.48 Z M230.32,94.8 C225.36,94.8 221.84,90.8 221.84,86 L221.84,85.92 C221.84,81.12 225.28,77.2 230.24,77.2 C235.2,77.2 238.72,81.2 238.72,86 L238.72,86.08 C238.72,90.88 235.28,94.8 230.32,94.8 Z M261.32,100.44 C268.84,100.44 273.6,96.28 273.6,87.8 L273.6,72 L267.44,72 L267.44,88.04 C267.44,92.48 265.16,94.76 261.4,94.76 C257.64,94.76 255.36,92.4 255.36,87.84 L255.36,72 L249.2,72 L249.2,88 C249.2,96.24 253.8,100.44 261.32,100.44 Z M285.04,100 L285.04,91.6 L289.72,91.6 C296,91.6 301.04,88.24 301.04,81.76 L301.04,81.68 C301.04,75.96 297,72 290.32,72 L278.88,72 L278.88,100 L285.04,100 Z M289.92,86.12 L285.04,86.12 L285.04,77.56 L289.8,77.56 C292.88,77.56 294.8,79.04 294.8,81.8 L294.8,81.88 C294.8,84.28 293,86.12 289.92,86.12 Z" id="SUPPORTGROUP" stroke="#090907" fill="#090907" fill-rule="nonzero"></path>
    </g>
</svg>